<svg width="12" height="16" viewBox="0 0 12 16" fill="none" xmlns="http://www.w3.org/2000/svg">
<g clip-path="url(#clip0_1_801)">
<path d="M10.2114 5.72779H9.48217V4.26929C9.48217 2.25657 7.84866 0.623047 5.83593 0.623047C3.82321 0.623047 2.1897 2.25657 2.1897 4.26929V5.72779H1.46045C0.658276 5.72779 0.00195312 6.38411 0.00195312 7.18628V14.4788C0.00195312 15.281 0.658276 15.9373 1.46045 15.9373H10.2114C11.0136 15.9373 11.6699 15.281 11.6699 14.4788V7.18628C11.6699 6.38411 11.0136 5.72779 10.2114 5.72779ZM5.83593 12.2911C5.03376 12.2911 4.37744 11.6347 4.37744 10.8326C4.37744 10.0304 5.03376 9.37402 5.83593 9.37402C6.63811 9.37402 7.29443 10.0304 7.29443 10.8326C7.29443 11.6347 6.63811 12.2911 5.83593 12.2911ZM3.64819 5.72779V4.26929C3.64819 3.05874 4.62538 2.08155 5.83593 2.08155C7.04649 2.08155 8.02368 3.05874 8.02368 4.26929V5.72779H3.64819Z" fill="white"/>
</g>
<defs>
<clipPath id="clip0_1_801">
<rect width="12" height="16" fill="white"/>
</clipPath>
</defs>
</svg>
