<svg style="display:none" xmlns="http://www.w3.org/2000/svg">
    <symbol id="logo" viewBox="0 0 138 50">
        <g>
            <path d="M21.75 49.7382C18.9643 49.7382 16.1786 49.2147 13.5 47.9058C11.0357 46.7277 8.78572 44.8953 6.85715 42.6702C5.03572 40.445 3.53572 37.6963 2.46429 34.8168C1.39286 31.6754 0.857149 28.4031 0.964292 25.1309C0.964292 21.8586 1.50001 18.4555 2.46429 15.445C3.53572 12.4346 4.92858 9.81675 6.85715 7.59162C10.8214 3.01047 16.1786 0.52356 21.6429 0.52356C24.4286 0.52356 27.3214 1.04712 30 2.35602C32.3571 3.53403 34.6072 5.10471 36.4286 7.32984L29.8929 15.3141C28.9286 14.0052 27.75 13.089 26.4643 12.4346C24.9643 11.6492 23.3571 11.2565 21.6429 11.3874C20.1429 11.3874 18.6429 11.6492 17.3571 12.3037C16.0714 12.9581 15 13.8743 14.0357 15.1832C13.0714 16.4921 12.3214 17.9319 11.7857 19.5026C11.25 21.3351 11.0357 23.2984 11.0357 25.2618C11.0357 27.2251 11.25 29.1885 11.7857 31.0209C12.3214 32.5916 13.0714 34.1623 14.0357 35.4712C15 36.6492 16.1786 37.6963 17.3571 38.3508C18.75 39.0052 20.25 39.267 21.6429 39.267C23.25 39.267 24.9643 39.0052 26.4643 38.2199C27.75 37.5654 29.0357 36.5183 30 35.2094L36.6429 43.1937C34.7143 45.288 32.5714 46.9895 30.2143 48.1675C27.4286 49.2147 24.6429 49.7382 21.75 49.7382ZM51.3214 49.7382C48.6429 49.7382 45.9643 49.0838 43.6072 47.5131C41.4643 46.0733 39.5357 43.9791 38.25 41.3613C36.9643 38.6126 36.2143 35.6021 36.3214 32.4607C36.3214 29.4503 36.9643 26.3089 38.25 23.6911C39.5357 21.0733 41.3572 18.9791 43.6072 17.5393C45.9643 15.9686 48.6429 15.1832 51.3214 15.1832C54 15.1832 56.6786 15.9686 59.0357 17.5393C61.2857 18.9791 63.1071 21.0733 64.3929 23.6911C65.6786 26.3089 66.4286 29.3194 66.3214 32.3298C66.3214 35.4712 65.6786 38.4817 64.3929 41.2304C63.1071 43.8482 61.2857 45.9424 59.0357 47.3822C56.5714 48.9529 54 49.7382 51.3214 49.7382ZM51.3214 39.267C52.2857 39.267 53.25 39.0052 54.1071 38.4817C54.8571 37.9581 55.6071 37.0419 56.0357 36.1257C56.4643 35.0785 56.6786 33.7696 56.6786 32.5916C56.6786 31.4136 56.4643 30.1047 55.9286 29.0576C55.5 28.0105 54.8571 27.2251 54.1071 26.7016C53.25 26.178 52.2857 25.7853 51.3214 25.9162C50.3572 25.9162 49.3929 26.178 48.5357 26.8325C47.7857 27.356 47.1429 28.2722 46.7143 29.3194C46.2857 30.3665 46.0714 31.5445 46.0714 32.8534C46.0714 34.0314 46.2857 35.2094 46.7143 36.3874C47.1429 37.4346 47.7857 38.2199 48.5357 38.7435C49.2857 39.0052 50.25 39.267 51.3214 39.267ZM80.0357 49.6073C75.2143 49.7382 70.7143 46.5969 68.4643 41.3613C67.2857 38.6126 66.75 35.6021 66.8571 32.5916C66.8571 29.5812 67.3929 26.4398 68.4643 23.6911C69.5357 21.2042 71.1429 19.1099 73.0714 17.6702C75.2143 16.0995 77.5714 15.445 80.0357 15.445C81.6429 15.445 83.25 15.8377 84.75 16.623C86.1429 17.2775 87.4286 18.3246 88.3929 19.7644C89.3571 21.0733 90 22.644 90.1071 24.3455V40.3141C89.8929 42.0157 89.25 43.7173 88.3929 45.0262C87.3214 46.466 86.0357 47.644 84.6429 48.5602C83.1429 49.2147 81.5357 49.6073 80.0357 49.6073ZM81.6429 39.267C82.6071 39.267 83.5714 39.0052 84.4286 38.4817C85.1786 37.9581 85.8214 37.0419 86.25 36.1257C86.7857 35.0785 87 33.7696 87 32.5916C87 31.4136 86.7857 30.2356 86.3571 29.1885C85.9286 28.2722 85.2857 27.356 84.5357 26.8325C83.6786 26.178 82.7143 25.9162 81.75 25.9162C80.7857 25.9162 79.8214 26.178 78.9643 26.8325C78.2143 27.4869 77.5714 28.2722 77.0357 29.1885C76.6071 30.2356 76.3929 31.4136 76.3929 32.5916C76.3929 33.7696 76.6071 34.9476 77.0357 36.1257C77.4643 37.0419 78.1071 37.9581 78.9643 38.4817C79.7143 38.8743 80.6786 39.267 81.6429 39.267ZM96 48.9529H86.5714V40.1832L87.8571 32.0681L86.3571 24.0838V0H95.8929L96 48.9529Z" fill="#2F2F2F"/>
            <path d="M124.714 48.6913L114.107 27.4872H113.143L98.3572 1.04736H110.036L120.429 21.0735H121.393L136.286 48.6913H124.714ZM97.7143 48.6913L111.857 23.2987L119.571 27.7489L108.857 48.6913H97.7143ZM121.607 26.44L113.893 21.8589L124.286 1.04736H135.536L121.607 26.44Z" fill="url(#paint0_linear_1_894)"/>
        </g>
    </symbol>

    <symbol id="facebook" viewBox="0 0 8 17">
        <g>
            <path d="M7.83646 5.90212H5.40917V4.31018C5.40917 3.71233 5.80541 3.57295 6.08449 3.57295C6.36294 3.57295 7.7974 3.57295 7.7974 3.57295V0.944686L5.43838 0.935478C2.81965 0.935478 2.2237 2.89572 2.2237 4.15016V5.90212H0.709229V8.61039H2.2237C2.2237 12.0861 2.2237 16.2739 2.2237 16.2739H5.40917C5.40917 16.2739 5.40917 12.0448 5.40917 8.61039H7.55864L7.83646 5.90212Z"/>
        </g>
    </symbol>

    <symbol id="instagram" viewBox="0 0 16 17">
        <g>
            <path d="M7.95241 4.30159C5.73019 4.30159 3.88892 6.11111 3.88892 8.36508C3.88892 10.6191 5.69844 12.4286 7.95241 12.4286C10.2064 12.4286 12.0159 10.5873 12.0159 8.36508C12.0159 6.14286 10.1746 4.30159 7.95241 4.30159ZM7.95241 10.9683C6.52384 10.9683 5.34923 9.79365 5.34923 8.36508C5.34923 6.93651 6.52384 5.76191 7.95241 5.76191C9.38098 5.76191 10.5556 6.93651 10.5556 8.36508C10.5556 9.79365 9.38098 10.9683 7.95241 10.9683Z"/>
            <path d="M12.1745 5.12699C12.683 5.12699 13.0952 4.7148 13.0952 4.20635C13.0952 3.6979 12.683 3.28572 12.1745 3.28572C11.6661 3.28572 11.2539 3.6979 11.2539 4.20635C11.2539 4.7148 11.6661 5.12699 12.1745 5.12699Z"/>
            <path d="M14.5555 1.8254C13.7301 0.968256 12.5555 0.523811 11.2222 0.523811H4.68252C1.92062 0.523811 0.0793457 2.36508 0.0793457 5.12699V11.6349C0.0793457 13 0.52379 14.1746 1.41268 15.0317C2.26982 15.8571 3.41268 16.2698 4.71427 16.2698H11.1905C12.5555 16.2698 13.6984 15.8254 14.5238 15.0317C15.3809 14.2064 15.8254 13.0317 15.8254 11.6667V5.12699C15.8254 3.79365 15.3809 2.6508 14.5555 1.8254ZM14.3651 11.6667C14.3651 12.6508 14.0793 13.4444 13.5079 13.9841C12.9365 14.5238 12.1428 14.8095 11.1905 14.8095H4.71427C3.76189 14.8095 2.96823 14.5238 2.39681 13.9841C1.82538 13.4127 1.53966 12.6191 1.53966 11.6349V5.12699C1.53966 4.1746 1.82538 3.38095 2.39681 2.80953C2.93649 2.26984 3.76189 1.98413 4.71427 1.98413H11.2539C12.2063 1.98413 13 2.26984 13.5714 2.84127C14.1111 3.4127 14.4285 4.20635 14.4285 5.12699V11.6667H14.3651Z"/>
        </g>
    </symbol>

    <symbol id="twitter" viewBox="0 0 18 18">
        <g>
            <path d="M17.171 4.93696C16.5958 5.19245 15.9773 5.36485 15.3279 5.4422C15.9906 5.04532 16.4992 4.41651 16.7389 3.6668C16.1188 4.03469 15.4324 4.3018 14.7012 4.44582C14.116 3.82215 13.2819 3.43239 12.3591 3.43239C10.5869 3.43239 9.15012 4.8692 9.15012 6.64136C9.15012 6.89282 9.17847 7.13761 9.2332 7.37247C6.56624 7.23883 4.20157 5.9614 2.6189 4.0198C2.34277 4.49357 2.18449 5.04472 2.18449 5.63304C2.18449 6.74629 2.75098 7.72841 3.612 8.30404C3.08613 8.28715 2.59112 8.14297 2.15859 7.9025C2.1583 7.91583 2.1583 7.92933 2.1583 7.94314C2.1583 9.49762 3.26444 10.7946 4.73255 11.0896C4.46325 11.1628 4.17972 11.2021 3.88702 11.2021C3.68004 11.2021 3.47913 11.1821 3.28317 11.1445C3.6917 12.4193 4.87673 13.3471 6.28068 13.373C5.18245 14.2338 3.79895 14.7467 2.29533 14.7467C2.03644 14.7467 1.78111 14.7314 1.52997 14.7019C2.95033 15.6126 4.63689 16.1437 6.44902 16.1437C12.3516 16.1437 15.579 11.2539 15.579 7.01341C15.579 6.8745 15.5762 6.73575 15.57 6.59824C16.1968 6.14587 16.7411 5.58066 17.171 4.93696Z"/>
        </g>
    </symbol>

    <symbol id="lock" viewBox="0 0 12 16">
        <g>
            <path d="M10.2114 5.72779H9.48217V4.26929C9.48217 2.25657 7.84866 0.623047 5.83593 0.623047C3.82321 0.623047 2.1897 2.25657 2.1897 4.26929V5.72779H1.46045C0.658276 5.72779 0.00195312 6.38411 0.00195312 7.18628V14.4788C0.00195312 15.281 0.658276 15.9373 1.46045 15.9373H10.2114C11.0136 15.9373 11.6699 15.281 11.6699 14.4788V7.18628C11.6699 6.38411 11.0136 5.72779 10.2114 5.72779ZM5.83593 12.2911C5.03376 12.2911 4.37744 11.6347 4.37744 10.8326C4.37744 10.0304 5.03376 9.37402 5.83593 9.37402C6.63811 9.37402 7.29443 10.0304 7.29443 10.8326C7.29443 11.6347 6.63811 12.2911 5.83593 12.2911ZM3.64819 5.72779V4.26929C3.64819 3.05874 4.62538 2.08155 5.83593 2.08155C7.04649 2.08155 8.02368 3.05874 8.02368 4.26929V5.72779H3.64819Z"/>
        </g>
    </symbol>

    <symbol id="eyee" viewBox="0 0 18 18">
        <g>
            <path id="Vector" d="M9.16838 3.56836C5.71405 3.56836 2.76405 5.71696 1.56885 8.74986C2.76405 11.7827 5.71405 13.9313 9.16838 13.9313C12.6227 13.9313 15.5727 11.7827 16.7679 8.74986C15.5727 5.71696 12.6227 3.56836 9.16838 3.56836ZM9.16838 12.2042C7.26159 12.2042 5.71405 10.6567 5.71405 8.74986C5.71405 6.84306 7.26159 5.29552 9.16838 5.29552C11.0751 5.29552 12.6227 6.84306 12.6227 8.74986C12.6227 10.6567 11.0751 12.2042 9.16838 12.2042ZM9.16838 6.67726C8.02154 6.67726 7.09578 7.60301 7.09578 8.74986C7.09578 9.89671 8.02154 10.8224 9.16838 10.8224C10.3153 10.8224 11.241 9.89671 11.241 8.74986C11.241 7.60301 10.3153 6.67726 9.16838 6.67726Z" fill-opacity="0.7"/>
        </g>
    </symbol>

    <symbol id="faq-sign" viewBox="0 0 28 17">
        <g>
            <path id="Vector" d="M1.06067 1.93945L15.0607 15.9394" stroke="#79AF98" stroke-width="3"/>
            <path id="Vector_2" d="M12.9393 15.9394L26.9393 1.93945" stroke="#79AF98" stroke-width="3"/>
        </g>
    </symbol>
</svg>